<svg width="72" height="90" viewBox="0 0 72 90" fill="none" xmlns="http://www.w3.org/2000/svg">
<path d="M15.5498 23.9145H19.1965L20.4801 20.3565H15.5498V17.0609H21.6762L22.989 13.5029H10.4736V29.8056H15.5498V23.9145Z" fill="white"/>
<path d="M29.6132 13.5029H24.5361V29.8056H29.6132V13.5029Z" fill="white"/>
<path d="M38.1885 23.9145H41.8352L43.1188 20.3565H38.1885V17.0609H44.3149L45.6277 13.5029H33.1123V29.8056H38.1885V23.9145Z" fill="white"/>
<path d="M47.9909 29.8056L48.6327 27.6183H54.4673L55.1383 29.8056H60.2436L54.409 13.5029H49.1286L43.2939 29.8056H47.9909ZM51.4916 17.7025L53.5046 24.4977H49.537L51.4916 17.7025Z" fill="white"/>
<path d="M58.3767 17.6734C58.5848 17.9056 58.8447 18.0854 59.1353 18.1984C59.4356 18.3417 59.7656 18.4116 60.0982 18.4025C60.7433 18.3844 61.358 18.1241 61.8198 17.6734C62.052 17.4654 62.2319 17.2056 62.345 16.9152C62.4795 16.6173 62.5491 16.2942 62.5491 15.9673C62.5491 15.6405 62.4795 15.3174 62.345 15.0195C62.2232 14.7252 62.0446 14.4577 61.8193 14.2325C61.594 14.0073 61.3264 13.8288 61.032 13.7071C60.7339 13.5727 60.4107 13.5031 60.0837 13.5031C59.7567 13.5031 59.4334 13.5727 59.1353 13.7071C58.8447 13.8201 58.5848 13.9999 58.3767 14.2321C57.9259 14.6936 57.6654 15.3079 57.6473 15.9527C57.6381 16.2852 57.7082 16.615 57.8515 16.9152C57.9646 17.2056 58.1445 17.4654 58.3767 17.6734ZM58.3767 15.1653C58.4783 14.9401 58.6163 14.7332 58.7852 14.5529C58.9473 14.3755 59.1466 14.2361 59.3688 14.1446C59.5964 14.0374 59.8468 13.9873 60.0982 13.9988C60.3405 13.9846 60.5821 14.0349 60.7985 14.1446C61.0294 14.2357 61.2383 14.3749 61.4113 14.5529C61.5712 14.7343 61.6993 14.9414 61.7906 15.1653C61.9862 15.6721 61.9862 16.2334 61.7906 16.7402C61.7065 16.9764 61.5777 17.1942 61.4113 17.3818C61.2309 17.5506 61.0238 17.6886 60.7985 17.7901C60.5776 17.8863 60.3392 17.936 60.0982 17.9359C59.8482 17.9323 59.6009 17.8829 59.3688 17.7901C59.1524 17.6882 58.9551 17.5501 58.7852 17.3818C58.6095 17.1958 58.4709 16.978 58.3767 16.7402C58.1811 16.2334 58.1811 15.6721 58.3767 15.1653V15.1653Z" fill="white"/>
<path d="M59.9812 16.1277H59.6602L59.7186 17.3234H59.1934V14.5528H60.2438C60.5127 14.5312 60.7808 14.6033 61.0025 14.757C61.1524 14.9142 61.2359 15.1231 61.2359 15.3403C61.2359 15.5574 61.1524 15.7663 61.0025 15.9235C60.8548 16.0476 60.6701 16.1194 60.4773 16.1277L61.2359 17.3234H60.6816L59.9812 16.1277Z" fill="white"/>
<path d="M15.8424 58.6487C16.0936 58.9117 16.4035 59.1116 16.7469 59.2319C17.541 59.5053 18.4038 59.5053 19.1979 59.2319C19.5413 59.1116 19.8512 58.9117 20.1025 58.6487C20.345 58.3807 20.5245 58.0618 20.6276 57.7154C20.7491 57.3287 20.8082 56.925 20.8027 56.5197C20.8103 56.1047 20.7512 55.6911 20.6276 55.2948C20.5245 54.9484 20.345 54.6296 20.1025 54.3616C19.8434 54.1081 19.5357 53.9097 19.1979 53.7783C18.4038 53.505 17.541 53.505 16.7469 53.7783C16.4037 53.8968 16.0944 54.0967 15.8454 54.3608C15.5964 54.6249 15.4152 54.9454 15.3172 55.2948C15.1692 55.6857 15.0998 56.102 15.1129 56.5197C15.1021 56.9278 15.1715 57.334 15.3172 57.7154C15.4203 58.0618 15.5998 58.3807 15.8424 58.6487ZM16.7469 55.7323C16.8018 55.5295 16.8802 55.3337 16.9803 55.149C17.0859 54.9855 17.2252 54.8463 17.3888 54.7407C17.58 54.69 17.7812 54.69 17.9724 54.7407C18.1641 54.6937 18.3643 54.6937 18.556 54.7407C18.7196 54.8463 18.8589 54.9855 18.9645 55.149C19.0672 55.3295 19.1364 55.5271 19.1687 55.7323C19.2007 55.9645 19.2007 56.2 19.1687 56.4322C19.1971 56.6549 19.1971 56.8803 19.1687 57.103C19.1315 57.3069 19.0627 57.5037 18.9645 57.6863C18.8589 57.8498 18.7196 57.989 18.556 58.0946C18.3766 58.1909 18.1761 58.241 17.9724 58.2404C17.7683 58.245 17.5667 58.1946 17.3888 58.0946C17.2252 57.989 17.0859 57.8498 16.9803 57.6863C16.885 57.4993 16.8069 57.3041 16.7469 57.103C16.7325 56.8796 16.7325 56.6556 16.7469 56.4322C16.734 56.2283 16.734 56.0237 16.7469 55.8198V55.7323Z" fill="white"/>
<path d="M23.5436 57.0738H25.7321V55.9947H23.5436V54.7407H25.8196V53.6616H22.0264V59.3486H23.5436V57.0738Z" fill="white"/>
<path d="M28.4743 57.0738H30.6627V55.9947H28.4743V54.7407H30.7503V53.6616H26.957V59.3486H28.4743V57.0738Z" fill="white"/>
<path d="M33.5201 53.6616H32.0029V59.3486H33.5201V53.6616Z" fill="white"/>
<path d="M36.0007 58.7945C36.3205 59.0176 36.6756 59.1852 37.0511 59.2903C37.4391 59.3314 37.8303 59.3314 38.2183 59.2903H39.1812L39.8815 59.1153V57.9488L39.2104 58.1529C38.9583 58.1816 38.7038 58.1816 38.4517 58.1529C38.1997 58.1832 37.945 58.1832 37.6931 58.1529C37.4686 58.08 37.2673 57.9493 37.1095 57.7738C36.9348 57.6208 36.7954 57.4317 36.701 57.2197C36.6543 56.9691 36.6543 56.712 36.701 56.4614C36.6566 56.2204 36.6566 55.9733 36.701 55.7323C36.7893 55.5222 36.9072 55.3258 37.0511 55.149C37.2115 54.9902 37.3993 54.8617 37.6055 54.7699C37.8467 54.7261 38.0938 54.7261 38.335 54.7699C38.587 54.7396 38.8417 54.7396 39.0936 54.7699C39.3505 54.8287 39.5966 54.9271 39.8231 55.0615V53.8367L38.9186 53.6617C38.6276 53.6314 38.3342 53.6314 38.0432 53.6617C37.6092 53.6604 37.1771 53.7193 36.7593 53.8367C36.3852 53.9511 36.0379 54.1395 35.7381 54.3908C35.4441 54.6515 35.2059 54.969 35.0378 55.324C34.8821 55.7339 34.803 56.1688 34.8043 56.6072C34.7887 57.081 34.8888 57.5515 35.0961 57.9779C35.3368 58.3108 35.645 58.589 36.0007 58.7945V58.7945Z" fill="white"/>
<path d="M42.4773 53.6616H40.96V59.3486H42.4773V53.6616Z" fill="white"/>
<path d="M45.5107 58.1237H47.6696L48.1071 59.3486H49.7701L47.6696 53.6616H45.8024L43.6436 59.3486H45.1898L45.5107 58.1237ZM46.5901 54.8282L47.2611 57.0738H45.8316L46.5901 54.8282Z" fill="white"/>
<path d="M54.5839 58.2112H52.2497V53.6616H50.7324V59.3486H54.5839V58.2112Z" fill="white"/>
<path d="M18.9638 67.8646H16.6296V63.2858H15.1123V68.9728H18.9638V67.8646Z" fill="white"/>
<path d="M21.646 63.2858H20.1289V68.9728H21.646V63.2858Z" fill="white"/>
<path d="M23.8923 63.9274C23.5984 64.1881 23.3602 64.5056 23.1921 64.8606C23.0364 65.2705 22.9573 65.7054 22.9586 66.1438C22.943 66.6177 23.0431 67.0881 23.2504 67.5145C23.439 67.8644 23.6972 68.1721 24.009 68.4186C24.3288 68.6417 24.684 68.8093 25.0595 68.9144C25.4395 69.0186 25.8326 69.0677 26.2266 69.0602H27.1895L27.9189 68.8852V67.7187L27.2478 67.952C27.0055 67.9805 26.7607 67.9805 26.5184 67.952C26.2568 67.9843 25.9922 67.9843 25.7306 67.952C25.5136 67.8776 25.3148 67.7583 25.147 67.602C24.9786 67.4323 24.8405 67.235 24.7385 67.0188C24.6897 66.7684 24.6897 66.5109 24.7385 66.2605C24.6941 66.0195 24.6941 65.7724 24.7385 65.5314C24.8268 65.3213 24.9447 65.1249 25.0886 64.9481C25.249 64.7893 25.4368 64.6608 25.643 64.569C25.8842 64.5252 26.1313 64.5252 26.3725 64.569C26.6245 64.5387 26.8792 64.5387 27.1311 64.569C27.3837 64.6407 27.6282 64.7384 27.8606 64.8606V63.6357L27.0436 63.4316C26.7622 63.4029 26.4787 63.4029 26.1974 63.4316C25.7537 63.4284 25.3118 63.4873 24.8844 63.6066C24.5371 63.6531 24.2011 63.7618 23.8923 63.9274Z" fill="white"/>
<path d="M30.4861 66.6105H32.8204V65.5314H30.4861V64.3649H32.9663V63.2858H28.9688V68.9728H33.0538V67.8937H30.4861V66.6105Z" fill="white"/>
<path d="M35.7377 65.094H35.7669L37.751 68.9728H39.6184V63.2858H38.247L38.2762 67.1646H38.247L36.3213 63.2858H34.3955V68.9728H35.796L35.7377 65.094Z" fill="white"/>
<path d="M41.6296 66.2605L42.2716 66.5521C42.4919 66.5983 42.707 66.6667 42.9135 66.7562C43.0981 66.8106 43.2747 66.889 43.4387 66.9896C43.4977 67.0393 43.5442 67.1021 43.5746 67.173C43.605 67.2439 43.6184 67.3209 43.6138 67.3979C43.6337 67.4842 43.6337 67.574 43.6138 67.6603C43.5694 67.7416 43.4967 67.8039 43.4095 67.8353C43.3046 67.8653 43.1934 67.8653 43.0885 67.8353H42.7384C42.4483 67.8793 42.1532 67.8793 41.8631 67.8353C41.6254 67.7889 41.398 67.7 41.192 67.5728V68.8269C41.4668 68.9158 41.7506 68.9745 42.0382 69.0019C42.3195 69.0299 42.603 69.0299 42.8843 69.0019C43.1948 69.0319 43.5075 69.0319 43.818 69.0019C44.0963 68.9537 44.3633 68.8549 44.6058 68.7102C44.8402 68.5725 45.0398 68.3829 45.1894 68.1561C45.3246 67.8636 45.3943 67.5451 45.3937 67.2229C45.413 66.936 45.3415 66.6503 45.1894 66.4063C45.0627 66.2065 44.8933 66.0372 44.6934 65.9105L44.0514 65.6189L43.4095 65.4439L42.9135 65.2397C42.8498 65.2067 42.7968 65.1562 42.7607 65.0943C42.7245 65.0323 42.7067 64.9614 42.7093 64.8898C42.69 64.8435 42.68 64.794 42.68 64.7439C42.68 64.6939 42.69 64.6443 42.7093 64.5981C42.7823 64.5206 42.8721 64.4607 42.9719 64.4231H43.322H43.6429C44.0716 64.4502 44.4941 64.5386 44.8976 64.6856V63.519H44.2266H43.4387H42.5634C42.2902 63.5711 42.0253 63.6594 41.7755 63.7815C41.5412 63.9193 41.3416 64.1088 41.192 64.3356C41.0291 64.5869 40.9476 64.8822 40.9585 65.1814C40.9467 65.4428 41.0055 65.7026 41.1287 65.9335C41.2519 66.1644 41.435 66.358 41.6588 66.4938L41.6296 66.2605Z" fill="white"/>
<path d="M50.4419 64.3649V63.2858H46.4443V68.9728H50.5294V67.8937H47.9617V66.6105H50.296V65.5314H47.9617V64.3649H50.4419Z" fill="white"/>
<path d="M51.8711 63.2858V69.1186H53.9136C54.3649 69.1182 54.8149 69.0693 55.2558 68.9728C55.6459 68.8833 56.0133 68.7145 56.3354 68.477C56.6298 68.2398 56.8688 67.9412 57.0357 67.6021C57.2204 67.1795 57.3101 66.7215 57.2983 66.2605C57.3164 65.7896 57.2266 65.3208 57.0357 64.8898C56.8789 64.5444 56.6381 64.2436 56.3354 64.0149C56.0174 63.8016 55.6604 63.653 55.285 63.5775C54.8342 63.4811 54.3745 63.4322 53.9136 63.4316L51.8711 63.2858ZM55.2558 64.8607C55.425 65.0258 55.5548 65.2269 55.6356 65.4491C55.7164 65.6712 55.7461 65.9087 55.7226 66.1439C55.7401 66.3786 55.7076 66.6144 55.6271 66.8356C55.5466 67.0568 55.4201 67.2584 55.2558 67.4271C55.0794 67.5765 54.8751 67.6896 54.6547 67.7596C54.4344 67.8297 54.2023 67.8555 53.9719 67.8354H53.5051V64.4232H54.0886C54.5182 64.421 54.9336 64.5767 55.2558 64.8607V64.8607Z" fill="white"/>
<path d="M16.6296 76.7012H17.2131C17.8088 76.7389 18.3985 76.5631 18.8763 76.2054C19.0783 76.0471 19.2394 75.8426 19.346 75.6092C19.4526 75.3757 19.5017 75.1201 19.489 74.8638C19.5054 74.5957 19.4555 74.3277 19.3435 74.0836C19.2315 73.8394 19.061 73.6266 18.8471 73.464C18.2675 73.1165 17.5958 72.9537 16.9214 72.9974H15.1123V78.6843H16.6296V76.7012ZM16.6296 74.0764H17.0381H17.3882C17.4926 74.0917 17.5919 74.1313 17.6781 74.1921C17.7642 74.2529 17.8348 74.3332 17.8842 74.4264C17.9182 74.5406 17.9182 74.6622 17.8842 74.7764C17.9176 74.9005 17.9176 75.0313 17.8842 75.1555C17.8494 75.2571 17.7761 75.3409 17.68 75.3888C17.5995 75.4656 17.4979 75.5164 17.3882 75.5346H16.6296V74.0764Z" fill="white"/>
<path d="M24.6241 76.7012L24.449 76.3221L24.2739 76.0596L23.9821 75.9138C24.3061 75.8543 24.5969 75.6779 24.7991 75.418C24.9809 75.1415 25.0726 74.8155 25.0617 74.4848C25.0792 74.2611 25.0283 74.0373 24.9158 73.8432C24.8247 73.662 24.6953 73.5028 24.5365 73.3766C24.3566 73.2598 24.1597 73.1713 23.9529 73.1141H23.2527H20.5391V78.801H22.0564V76.5554H22.3773H22.7274C22.8337 76.5791 22.9273 76.6415 22.99 76.7304C23.0845 76.8457 23.163 76.9733 23.2235 77.1095C23.2235 77.2845 23.2235 77.4887 23.4277 77.722L23.7487 78.7427H25.3243L24.7991 77.197C24.7177 77.0408 24.6587 76.8739 24.6241 76.7012V76.7012ZM23.4569 75.1264L23.1943 75.3014C23.0696 75.3311 22.9397 75.3311 22.815 75.3014H22.0564V74.0182H22.8734H23.2235C23.3141 74.0701 23.3934 74.1395 23.4569 74.2223C23.4904 74.3266 23.4904 74.4388 23.4569 74.5431C23.5081 74.6944 23.5081 74.8584 23.4569 75.0097V75.1264Z" fill="white"/>
<path d="M31.1583 73.6098C30.9154 73.3505 30.6158 73.1509 30.2829 73.0265C29.8918 72.8786 29.4754 72.8093 29.0574 72.8224C28.63 72.8092 28.204 72.8785 27.8028 73.0265C27.4699 73.1509 27.1703 73.3505 26.9274 73.6098C26.6759 73.8761 26.4865 74.1949 26.373 74.5431C26.2494 74.9394 26.1903 75.3529 26.1979 75.7679C26.1946 76.1827 26.2536 76.5956 26.373 76.9928C26.4868 77.3323 26.6764 77.6414 26.9274 77.8969C27.1623 78.1654 27.4644 78.3667 27.8028 78.4802C28.2047 78.6255 28.6301 78.6947 29.0574 78.6843C29.475 78.6925 29.8905 78.6232 30.2829 78.4802C30.6213 78.3667 30.9234 78.1654 31.1583 77.8969C31.4093 77.6414 31.5989 77.3323 31.7127 76.9928C31.8321 76.5956 31.8911 76.1827 31.8878 75.7679C31.8954 75.3529 31.8363 74.9394 31.7127 74.5431C31.5992 74.1949 31.4098 73.8761 31.1583 73.6098V73.6098ZM30.2538 76.5262C30.2118 76.7331 30.1327 76.9307 30.0203 77.1095C29.9253 77.2717 29.7959 77.4111 29.641 77.5178C29.4489 77.5606 29.2496 77.5606 29.0574 77.5178C28.8559 77.565 28.6462 77.565 28.4447 77.5178C28.2899 77.4111 28.1604 77.2717 28.0654 77.1095C27.953 76.9307 27.8739 76.7331 27.8319 76.5262C27.7541 76.0726 27.7541 75.6091 27.8319 75.1555C27.8739 74.9486 27.953 74.751 28.0654 74.5722C28.1533 74.4125 28.2849 74.281 28.4447 74.1931C28.6444 74.1322 28.8577 74.1322 29.0574 74.1931C29.2478 74.1364 29.4507 74.1364 29.641 74.1931C29.8009 74.281 29.9324 74.4125 30.0203 74.5722C30.1327 74.751 30.2118 74.9486 30.2538 75.1555C30.2858 75.3877 30.2858 75.6232 30.2538 75.8554C30.2464 76.0525 30.217 76.2481 30.1662 76.4387L30.2538 76.5262Z" fill="white"/>
<path d="M37.6339 73.4932C37.3071 73.2764 36.9399 73.1276 36.5543 73.0558C36.1082 73.008 35.6582 73.008 35.2121 73.0558H33.082V78.7427H35.1537C35.6 78.7888 36.0497 78.7888 36.4959 78.7427C36.8758 78.6495 37.233 78.4809 37.5464 78.2469C37.8569 78.0263 38.0994 77.7232 38.2467 77.372C38.4314 76.9495 38.521 76.4915 38.5093 76.0305C38.5244 75.5598 38.4347 75.0916 38.2467 74.6598C38.1654 74.2178 37.9517 73.811 37.6339 73.4932ZM36.5543 77.0512C36.1888 77.3598 35.7188 77.5164 35.2413 77.4887H34.6577V74.0473H35.2413C35.7188 74.0197 36.1888 74.1763 36.5543 74.4848C36.7104 74.6579 36.8297 74.8609 36.9049 75.0815C36.9801 75.3021 37.0097 75.5357 36.992 75.768C37.0081 76.0003 36.9777 76.2334 36.9025 76.4537C36.8274 76.674 36.709 76.8772 36.5543 77.0512V77.0512Z" fill="white"/>
<path d="M40.4936 78.1595C40.7225 78.3525 40.9917 78.492 41.2814 78.5678C41.6105 78.6141 41.9444 78.6141 42.2735 78.5678C42.6122 78.6157 42.956 78.6157 43.2947 78.5678C43.5845 78.492 43.8536 78.3525 44.0826 78.1595C44.2985 77.9664 44.468 77.7272 44.5786 77.4596C44.7279 77.1407 44.7979 76.7905 44.7828 76.4388V72.91H43.2656V76.1763C43.2814 76.3607 43.2814 76.5461 43.2656 76.7305C43.2302 76.8804 43.1813 77.0268 43.1197 77.1679C43.0454 77.2857 42.9457 77.3853 42.8279 77.4596C42.6662 77.5091 42.4935 77.5091 42.3318 77.4596C42.1798 77.5067 42.017 77.5067 41.865 77.4596C41.7406 77.3938 41.6389 77.2922 41.5732 77.1679C41.49 77.0333 41.4308 76.8853 41.3981 76.7305C41.3828 76.5461 41.3828 76.3607 41.3981 76.1763V72.91H39.8808V76.4388C39.8715 76.7873 39.931 77.1341 40.0559 77.4596C40.1518 77.7206 40.3008 77.9589 40.4936 78.1595V78.1595Z" fill="white"/>
<path d="M50.1501 77.4887C49.8981 77.5173 49.6435 77.5173 49.3915 77.4887C49.1405 77.5328 48.8838 77.5328 48.6329 77.4887C48.411 77.4119 48.2078 77.2891 48.0369 77.1283C47.8659 76.9674 47.7309 76.7722 47.6408 76.5554C47.5453 76.3242 47.4957 76.0765 47.4949 75.8263C47.4956 75.5667 47.5451 75.3094 47.6408 75.0681C47.7176 74.8523 47.8366 74.654 47.991 74.4848C48.1513 74.326 48.3391 74.1975 48.5453 74.1057C48.7863 74.0592 49.0339 74.0592 49.2748 74.1057C49.5268 74.0754 49.7814 74.0754 50.0334 74.1057C50.2842 74.1826 50.5282 74.2801 50.7628 74.3973V73.1724L49.9459 72.9683C49.6548 72.9396 49.3616 72.9396 49.0705 72.9683C48.6363 72.963 48.2037 73.022 47.7867 73.1432C47.4082 73.2684 47.0532 73.4556 46.7363 73.6974C46.4491 73.9576 46.2204 74.2756 46.0652 74.6306C45.9074 75.05 45.8282 75.4949 45.8318 75.943C45.811 76.4079 45.9116 76.8702 46.1236 77.2845C46.3028 77.6407 46.5625 77.9502 46.8822 78.1886C47.1955 78.4226 47.5527 78.5912 47.9326 78.6844C48.3195 78.7415 48.7128 78.7415 49.0997 78.6844C49.4199 78.7172 49.7425 78.7172 50.0626 78.6844H50.7628V77.4887H50.1501Z" fill="white"/>
<path d="M51.5488 74.0474H52.9494V78.597H54.4667V74.0474H55.8673V72.91H51.5488V74.0474Z" fill="white"/>
<path d="M0 0V90H72V0H0ZM71.2124 89.2126H0.787651V45.4666H71.2124V89.2126ZM71.2124 44.6209H0.787651V0.87492H71.2124V44.6209Z" fill="white"/>
</svg>
